<svg version="1.1" id="Layer_1" xmlns="http://www.w3.org/2000/svg" xmlns:xlink="http://www.w3.org/1999/xlink" x="0px" y="0px"
	 width="100%" viewBox="0 0 1024 1024" enable-background="new 0 0 1024 1024" xml:space="preserve">
<path fill="#F3F9FE" opacity="1.000000" stroke="none" 
	d="
M644.000000,1025.000000 
	C429.333344,1025.000000 215.166672,1025.000000 1.000000,1025.000000 
	C1.000000,683.666687 1.000000,342.333344 1.000000,1.000000 
	C342.333344,1.000000 683.666687,1.000000 1025.000000,1.000000 
	C1025.000000,342.333344 1025.000000,683.666687 1025.000000,1025.000000 
	C898.166687,1025.000000 771.333313,1025.000000 644.000000,1025.000000 
M661.647888,724.031067 
	C661.817566,723.714905 661.987244,723.398804 662.073792,723.114746 
	C662.073792,723.114746 662.141113,723.173096 662.773560,722.958496 
	C663.941162,721.367615 665.108765,719.776733 666.188843,718.246582 
	C666.188843,718.246582 666.292053,718.272888 666.915588,718.092407 
	C668.381592,716.177185 669.847595,714.261963 671.828064,712.030334 
	C672.344604,711.165527 672.861145,710.300720 673.892090,709.109802 
	C674.281128,708.423096 674.670227,707.736389 675.552002,706.768738 
	C675.810242,706.272278 676.068542,705.775818 676.893066,704.941406 
	C714.582153,651.374207 714.333801,573.496155 678.165955,526.694092 
	C676.494263,524.530945 676.558838,522.832581 678.178223,520.486450 
	C695.403503,495.532074 703.900391,467.626587 704.605957,437.516235 
	C705.402893,403.501038 695.473083,372.441071 675.987610,344.639648 
	C670.215149,336.403625 662.995911,329.181671 656.143188,320.906036 
	C651.235046,316.430328 646.582153,311.630188 641.376038,307.533081 
	C613.662476,285.722778 582.125549,272.271729 546.942749,271.449799 
	C491.715881,270.159515 436.435944,270.936890 381.182251,271.346008 
	C376.180145,271.383026 370.499969,274.180176 366.365112,277.317322 
	C357.816864,283.802948 356.933136,297.083160 363.837189,304.809601 
	C364.026306,305.084412 364.275269,305.285065 364.832886,306.013000 
	C366.525879,307.601318 368.218872,309.189636 369.272217,311.103485 
	C366.632019,312.500793 363.797699,313.625031 361.383972,315.340942 
	C348.268250,324.664703 341.746277,337.198517 341.773438,353.563477 
	C341.963318,467.949829 341.942535,582.336548 341.984131,696.723145 
	C341.991943,718.193359 351.424622,732.083313 371.125916,740.596619 
	C370.444153,741.074158 369.762421,741.551697 369.015717,742.005310 
	C369.015717,742.005310 369.021057,742.074280 368.421967,742.171936 
	C367.884064,742.730225 367.346130,743.288513 366.872406,743.909546 
	C366.872406,743.909546 366.904236,743.825623 366.354919,743.953369 
	C366.174713,744.263367 365.994507,744.573425 365.907196,744.900574 
	C365.907196,744.900574 365.878296,744.810669 365.326447,744.930298 
	C365.155151,745.248047 364.983856,745.565796 364.879456,745.827820 
	C364.879456,745.827820 364.804230,745.783936 364.144775,745.974976 
	C356.641602,751.895569 359.595551,770.201355 369.017853,773.994202 
	C369.017853,773.994202 369.087311,773.977722 369.417877,774.563904 
	C372.943695,775.892029 376.469513,777.220093 380.805450,778.833984 
	C382.228485,778.817688 383.651520,778.801392 385.981140,778.981873 
	C403.622498,778.904907 421.263885,778.827942 439.798859,778.936340 
	C442.226562,778.878845 444.654236,778.821350 447.986694,778.963196 
	C479.242828,778.982361 510.499878,778.860962 541.754700,779.071899 
	C561.306763,779.203918 580.165161,775.665955 598.244324,768.562073 
	C606.818054,765.193237 614.781067,760.270325 623.022034,756.013123 
	C623.022034,756.013123 623.053406,756.035095 623.746338,755.939331 
	C629.565796,751.695923 635.385193,747.452515 641.194458,743.118530 
	C641.194458,743.118530 641.134033,743.186768 641.688049,743.091736 
	C641.868652,742.783997 642.049194,742.476196 642.111328,742.164185 
	C642.111328,742.164185 642.158569,742.272888 642.756714,742.230347 
	C643.182129,741.834778 643.607544,741.439270 644.010254,740.999451 
	C644.010254,740.999451 644.044006,741.040161 644.677002,740.906494 
	C646.042725,739.583740 647.408386,738.260986 649.396667,736.712036 
	C650.588379,735.437317 651.780090,734.162659 653.517151,732.671448 
	C653.771667,732.170837 654.026123,731.670166 654.142334,731.144104 
	C654.142334,731.144104 654.174622,731.281006 654.760559,731.230530 
	C655.142395,730.812073 655.524231,730.393555 656.501953,729.740906 
	C657.707397,728.309143 658.912903,726.877380 660.647949,725.143250 
	C660.824707,724.791870 661.001526,724.440491 661.079285,724.092163 
	C661.079285,724.092163 661.114929,724.184570 661.647888,724.031067 
z"/>
<path fill="#17344E" opacity="1.000000" stroke="none" 
	d="
M371.417755,740.013855 
	C351.424622,732.083313 341.991943,718.193359 341.984131,696.723145 
	C341.942535,582.336548 341.963318,467.949829 341.773438,353.563477 
	C341.746277,337.198517 348.268250,324.664703 361.383972,315.340942 
	C363.797699,313.625031 366.632019,312.500793 369.986450,310.912964 
	C374.791016,310.058411 378.870422,308.912720 382.973694,308.819580 
	C395.894714,308.526184 408.824738,308.588165 421.751251,308.584381 
	C458.706635,308.573486 495.662170,308.532349 532.617249,308.643463 
	C545.862305,308.683289 559.160950,308.886444 571.933594,313.038940 
	C583.109314,316.672241 594.565430,319.681732 604.299133,326.801422 
	C611.073303,331.756317 618.015564,336.481384 624.929810,341.513000 
	C625.135681,341.980255 625.368896,342.115173 625.838257,342.423828 
	C630.415894,347.467438 635.137634,351.962036 639.196899,356.991211 
	C661.773315,384.961945 671.924866,416.749115 666.607239,452.573639 
	C663.046082,476.564972 652.445557,497.477020 635.466736,514.970276 
	C632.722168,517.798035 629.702576,520.358704 627.696411,522.220337 
	C636.172119,532.306641 644.052795,541.684753 651.973511,551.414734 
	C670.178894,582.570984 673.441467,615.215027 663.008911,649.095520 
	C659.739319,659.713501 654.334534,669.674011 649.935547,679.973389 
	C649.963989,680.011292 649.932373,679.922241 649.632507,680.081421 
	C646.751892,683.939819 644.171204,687.639038 641.519470,691.391846 
	C641.448425,691.445435 641.333313,691.581177 641.057617,691.678467 
	C640.470032,692.485962 640.158081,693.196228 639.882996,693.926392 
	C639.919922,693.946350 639.937805,693.864380 639.680542,693.949341 
	C639.265442,694.347778 639.107605,694.661316 638.976196,694.984680 
	C639.002625,694.994507 638.962585,694.954468 638.656250,695.085876 
	C636.536499,697.460205 634.723083,699.703186 632.943665,701.965881 
	C632.977722,701.985657 632.963562,701.908203 632.716064,701.999512 
	C632.306030,702.390930 632.143494,702.691040 631.990479,702.995605 
	C632.000000,703.000000 631.986938,702.982910 631.677307,703.108276 
	C630.065125,704.501465 628.886719,705.936584 627.440063,707.010132 
	C617.126099,714.664062 606.757385,722.244263 596.300049,729.786743 
	C596.193909,729.725586 596.006165,729.882935 595.644226,729.905762 
	C593.356262,730.908508 591.430298,731.888550 589.368164,732.806641 
	C589.232117,732.744812 589.017639,732.953186 588.697388,732.927734 
	C587.851807,733.205322 587.326477,733.508423 586.843018,733.789124 
	C586.884949,733.766724 586.810486,733.707642 586.450806,733.709106 
	C584.844360,734.410645 583.597534,735.110779 582.047119,735.695496 
	C581.160278,735.834167 580.577209,736.088196 579.715332,736.286621 
	C578.973389,736.523254 578.510193,736.815430 577.676880,737.092163 
	C576.861450,737.276733 576.416260,737.476807 575.611328,737.582825 
	C566.563354,738.787781 557.902832,740.930725 549.181213,741.217896 
	C528.083984,741.912842 506.958435,741.777161 485.843903,741.910645 
	C465.899567,742.036743 445.954681,742.079163 425.583923,742.035950 
	C423.102173,741.993469 421.046539,742.073486 418.577118,742.026123 
	C416.445068,741.977722 414.726807,742.056702 412.617310,742.014404 
	C411.147705,741.978577 410.069366,742.064026 408.536652,742.026611 
	C395.860748,741.273865 383.639252,740.643860 371.417755,740.013855 
M580.820740,587.764709 
	C570.495239,571.669434 555.997803,563.343445 536.648743,563.438965 
	C504.169098,563.599365 471.688202,563.505737 439.207855,563.518921 
	C437.443756,563.519653 435.679626,563.519043 433.731506,563.519043 
	C433.617523,565.332642 433.480835,566.467468 433.484406,567.601929 
	C433.580017,597.908264 433.771606,628.214783 433.708069,658.520752 
	C433.698730,662.965698 436.089020,662.802185 439.110596,662.803650 
	C472.423615,662.819641 505.736664,662.883118 539.049683,662.902344 
	C541.038147,662.903503 543.056458,662.807617 545.010925,662.468994 
	C579.355713,656.519043 597.367310,619.566101 580.820740,587.764709 
M441.666443,484.751434 
	C474.467926,484.782166 507.270142,484.952057 540.070618,484.786682 
	C557.223633,484.700226 570.464172,477.037476 579.273010,462.305603 
	C588.990112,446.054718 590.106934,429.006561 580.835999,412.441742 
	C571.355225,395.502197 556.499023,386.716766 536.581360,386.832611 
	C504.447174,387.019470 472.310791,386.832581 440.175323,386.803894 
	C438.205994,386.802155 436.236664,386.803680 433.974030,386.803680 
	C433.660889,389.002380 433.181519,390.780121 433.188568,392.556000 
	C433.301727,421.023163 433.396423,449.490936 433.697021,477.956451 
	C433.768555,484.729004 434.107147,484.725433 441.666443,484.751434 
z"/>
<path fill="#FC7364" opacity="1.000000" stroke="none" 
	d="
M408.991058,742.149414 
	C410.069366,742.064026 411.147705,741.978577 412.701599,742.365173 
	C415.320984,744.360046 417.391632,745.260681 418.990936,742.153503 
	C421.046539,742.073486 423.102173,741.993469 425.691132,742.415283 
	C428.083008,743.278503 429.940979,743.951660 431.800140,743.955017 
	C466.721252,744.018188 501.643494,744.142090 536.563171,743.908325 
	C545.794922,743.846497 555.061340,742.962952 564.227051,741.792419 
	C568.251282,741.278442 572.062927,739.099731 575.971069,737.676880 
	C576.416260,737.476807 576.861450,737.276733 577.836304,737.292969 
	C578.908630,737.120300 579.451355,736.731262 579.994080,736.342224 
	C580.577209,736.088196 581.160278,735.834167 582.487305,735.745789 
	C584.424255,735.176880 585.617371,734.442261 586.810486,733.707642 
	C586.810486,733.707642 586.884949,733.766724 587.167358,733.830078 
	C587.972412,733.580017 588.494995,733.266602 589.017639,732.953186 
	C589.017639,732.953186 589.232117,732.744812 589.791809,732.837402 
	C592.236389,731.914246 594.121277,730.898621 596.006165,729.882935 
	C596.006165,729.882935 596.193909,729.725586 596.753906,729.825562 
	C600.778198,730.060730 604.096619,731.840637 607.681152,729.051086 
	C610.338562,726.983032 613.991089,725.539246 617.348755,725.170837 
	C623.132141,724.536316 626.112793,720.178589 628.569092,716.441772 
	C630.971985,712.786011 630.946472,707.534119 631.986938,702.982910 
	C631.986938,702.982910 632.000000,703.000000 632.216675,702.879150 
	C632.610046,702.474915 632.786804,702.191589 632.963562,701.908203 
	C632.963562,701.908203 632.977722,701.985657 633.299988,701.950256 
	C635.402405,699.594727 637.182495,697.274597 638.962585,694.954468 
	C638.962585,694.954468 639.002625,694.994507 639.210571,694.870605 
	C639.591675,694.452637 639.764709,694.158508 639.937805,693.864380 
	C639.937805,693.864380 639.919922,693.946350 640.251953,693.903992 
	C640.833801,693.101501 641.083557,692.341309 641.333313,691.581177 
	C641.333313,691.581177 641.448425,691.445435 641.885986,691.598389 
	C646.716736,689.002747 650.057678,685.577332 649.932373,679.922241 
	C649.932373,679.922241 649.963989,680.011292 650.305786,679.958984 
	C651.876099,678.743408 653.484009,677.788025 654.257812,676.375671 
	C656.142273,672.936096 657.183289,668.678894 661.620117,670.257874 
	C662.854187,665.048584 663.165161,659.735291 665.440125,655.469421 
	C667.093506,652.369202 668.131714,650.324890 666.385376,647.149780 
	C666.144409,646.711792 668.074829,645.079407 669.355469,644.059631 
	C672.835815,646.295349 673.611877,649.214355 672.595398,652.802185 
	C672.011475,654.863098 671.176636,657.005737 671.285034,659.067871 
	C671.397766,661.212891 672.330261,665.056641 673.213745,665.147522 
	C681.269897,665.975769 678.693481,671.886475 678.967712,676.351624 
	C679.198547,680.111450 677.429749,682.879211 673.782227,683.867920 
	C669.240601,685.098938 667.887451,688.049683 667.938354,692.405884 
	C667.976440,695.665466 668.514465,699.615173 666.949890,702.049133 
	C663.916687,706.767761 664.512451,710.290100 667.848938,714.306396 
	C667.229248,715.831726 666.760681,717.052307 666.292053,718.272888 
	C666.292053,718.272888 666.188843,718.246582 665.883606,718.275391 
	C664.432617,719.927185 663.286865,721.550171 662.141113,723.173096 
	C662.141113,723.173096 662.073792,723.114746 661.858521,723.191162 
	C661.467163,723.573181 661.291016,723.878906 661.114929,724.184570 
	C661.114929,724.184570 661.079285,724.092163 660.846558,724.218262 
	C660.448730,724.711426 660.283569,725.078552 660.118408,725.445679 
	C658.912903,726.877380 657.707397,728.309143 655.904785,729.897461 
	C654.929932,730.463013 654.552246,730.872009 654.174622,731.281006 
	C654.174622,731.281006 654.142334,731.144104 653.917053,731.230713 
	C653.451782,731.840881 653.211792,732.364441 652.971802,732.888000 
	C651.780090,734.162659 650.588379,735.437317 648.737793,736.849976 
	C646.733948,738.338684 645.388977,739.689453 644.044067,741.040161 
	C644.044006,741.040161 644.010254,740.999451 643.707581,741.035095 
	C642.989502,741.471497 642.574036,741.872192 642.158569,742.272888 
	C642.158569,742.272888 642.111328,742.164185 641.900269,742.224121 
	C641.504150,742.584961 641.319092,742.885864 641.134033,743.186768 
	C641.134033,743.186768 641.194458,743.118530 640.827087,743.127380 
	C635.165771,746.657471 629.848511,750.144653 624.605530,753.740234 
	C623.896851,754.226196 623.561584,755.256714 623.053406,756.035095 
	C623.053406,756.035095 623.022034,756.013123 622.644165,756.019714 
	C620.572144,756.659485 618.861816,757.252563 617.186584,757.932312 
	C605.591492,762.637390 594.203491,767.956543 582.362427,771.924988 
	C567.989258,776.742065 552.839783,777.776062 537.770752,777.919373 
	C509.308960,778.189941 480.842773,777.983887 452.378510,778.030334 
	C450.612579,778.033203 448.847443,778.508484 447.081940,778.763916 
	C444.654236,778.821350 442.226562,778.878845 439.030060,778.604797 
	C421.129730,778.191772 403.998199,778.102600 386.866547,778.061035 
	C386.269806,778.059570 385.671906,778.533020 385.074554,778.785095 
	C383.651520,778.801392 382.228485,778.817688 380.300964,778.376770 
	C376.226776,776.605652 372.657043,775.291687 369.087280,773.977783 
	C369.087311,773.977722 369.017853,773.994202 368.972717,773.617310 
	C364.195953,767.905334 360.549927,762.104553 362.057678,754.553650 
	C362.654144,751.566711 363.870239,748.703491 364.804230,745.783936 
	C364.804230,745.783936 364.879456,745.827820 365.109711,745.776978 
	C365.519409,745.421021 365.698853,745.115845 365.878296,744.810669 
	C365.878296,744.810669 365.907196,744.900574 366.124390,744.814453 
	C366.529144,744.427368 366.716705,744.126526 366.904236,743.825623 
	C366.904236,743.825623 366.872406,743.909546 367.174896,743.894531 
	C367.991943,743.277710 368.506500,742.675964 369.021057,742.074280 
	C369.021057,742.074280 369.015717,742.005310 369.495239,742.009521 
	C381.488342,742.675842 392.998749,743.412476 404.519531,743.907104 
	C405.982178,743.969910 407.499207,742.766296 408.991058,742.149414 
z"/>
<path fill="#FB7666" opacity="1.000000" stroke="none" 
	d="
M624.882690,341.309143 
	C618.015564,336.481384 611.073303,331.756317 604.299133,326.801422 
	C594.565430,319.681732 583.109314,316.672241 571.933594,313.038940 
	C559.160950,308.886444 545.862305,308.683289 532.617249,308.643463 
	C495.662170,308.532349 458.706635,308.573486 421.751251,308.584381 
	C408.824738,308.588165 395.894714,308.526184 382.973694,308.819580 
	C378.870422,308.912720 374.791016,310.058411 370.306274,310.750214 
	C368.218872,309.189636 366.525879,307.601318 364.820312,305.602051 
	C364.807770,305.191132 365.026703,304.965973 365.392639,305.022705 
	C369.927673,308.815857 374.829773,308.399139 379.810455,307.570801 
	C381.113892,307.354065 382.423279,307.046814 383.734467,307.022247 
	C403.184479,306.657654 422.634644,306.277649 442.086487,306.052277 
	C445.538635,306.012299 449.003662,306.976898 452.454224,306.923737 
	C463.077057,306.760040 473.696442,306.348694 484.315735,305.990784 
	C489.287903,305.823242 494.642670,307.312988 498.661377,302.751404 
	C499.041321,302.320129 499.921112,302.370148 500.499023,302.064636 
	C502.196289,301.167480 504.074738,300.449982 505.485535,299.210602 
	C507.838135,297.143860 511.593658,297.660767 512.945435,300.417297 
	C513.522644,301.594360 514.701782,303.586823 515.240479,303.472931 
	C517.191223,303.060547 519.087097,302.070435 520.801636,300.980560 
	C521.804321,300.343170 522.308289,298.408691 523.235596,298.254547 
	C527.140808,297.605316 531.294800,296.522675 535.031372,297.257690 
	C540.172363,298.268921 544.490784,297.698578 548.764160,294.890472 
	C549.632446,294.319885 551.017761,294.022919 552.014771,294.252167 
	C555.916931,295.149292 559.706970,296.636536 563.640808,297.258911 
	C566.477844,297.707703 569.497131,296.859985 572.398499,297.078094 
	C577.436340,297.456787 576.859192,293.840302 577.283386,290.815979 
	C577.325562,290.515228 577.537781,290.133331 577.787720,289.982056 
	C583.913452,286.275513 582.027466,282.369324 577.947266,278.427551 
	C573.981995,278.379272 569.759949,281.984283 565.600708,277.436157 
	C564.832214,276.595764 560.687073,278.448822 558.362366,279.591583 
	C557.193787,280.166046 556.613403,281.937256 555.766968,283.167267 
	C555.303162,283.028778 554.839417,282.890289 554.375610,282.751801 
	C554.246887,281.046600 554.419250,279.241547 553.897034,277.666840 
	C553.455078,276.333923 552.299255,274.329681 551.304871,274.234344 
	C544.524109,273.584564 537.702942,273.351837 530.893799,273.004425 
	C528.075623,272.860626 525.225708,272.984192 522.440308,272.611603 
	C509.146332,270.833344 496.602264,272.836700 484.518524,279.653809 
	C480.265472,275.517120 475.588928,274.027802 470.678162,279.432098 
	C470.154816,280.008057 468.803101,279.944061 467.828552,279.979156 
	C460.669250,280.236938 453.232727,282.256500 446.981384,276.607666 
	C446.356201,276.042725 445.087189,276.038544 444.115448,276.032898 
	C436.203644,275.987091 428.288879,276.128632 420.379974,275.968445 
	C410.256500,275.763428 400.137451,275.337006 390.017242,274.983368 
	C389.197784,274.954742 388.338379,274.881836 387.575073,274.611053 
	C374.696228,270.042175 361.853119,278.889191 362.093384,292.451630 
	C362.161621,296.302277 363.357819,300.132996 363.930908,304.073853 
	C363.825104,304.174896 363.615753,304.379303 363.615753,304.379303 
	C356.933136,297.083160 357.816864,283.802948 366.365112,277.317322 
	C370.499969,274.180176 376.180145,271.383026 381.182251,271.346008 
	C436.435944,270.936890 491.715881,270.159515 546.942749,271.449799 
	C582.125549,272.271729 613.662476,285.722778 641.376038,307.533081 
	C646.582153,311.630188 651.235046,316.430328 656.172546,321.334961 
	C656.201904,321.763885 655.969360,322.030670 655.629028,321.982605 
	C649.706055,317.303528 644.393982,312.286926 638.476501,308.132965 
	C629.869385,302.091003 621.161804,296.031494 611.880127,291.153320 
	C601.196716,285.538483 594.383911,288.552948 592.356873,298.380951 
	C591.344543,303.289459 592.908630,305.374512 598.072327,306.000183 
	C607.589966,307.153442 612.502014,317.089722 607.019165,325.489777 
	C609.443604,326.970978 611.783020,329.513062 614.333557,329.746216 
	C621.491150,330.400543 625.061035,333.826355 624.882690,341.309143 
z"/>
<path fill="#FB7666" opacity="1.000000" stroke="none" 
	d="
M651.933411,551.062866 
	C644.052795,541.684753 636.172119,532.306641 627.696411,522.220337 
	C629.702576,520.358704 632.722168,517.798035 635.466736,514.970276 
	C652.445557,497.477020 663.046082,476.564972 666.607239,452.573639 
	C671.924866,416.749115 661.773315,384.961945 639.196899,356.991211 
	C635.137634,351.962036 630.415894,347.467438 626.228638,342.390259 
	C627.256470,342.221497 628.238770,342.148163 628.825256,342.594635 
	C632.536560,345.419891 635.374390,349.411163 640.547913,350.182373 
	C643.951538,350.689789 647.459473,351.484131 650.543213,352.946167 
	C656.908569,355.964081 659.671997,368.078461 656.038696,374.222992 
	C655.487244,375.155701 656.915222,378.440765 657.036865,378.419342 
	C662.057983,377.534668 661.273193,381.728149 661.906006,384.182831 
	C663.396423,389.963928 664.381897,395.873566 665.787903,401.678802 
	C666.501282,404.624664 668.207703,407.396759 668.547729,410.352936 
	C669.345886,417.292969 669.209473,424.348541 670.150574,431.262177 
	C671.581238,441.773102 669.171631,451.794067 666.509338,461.655396 
	C664.463013,469.234833 663.108215,476.464935 665.627991,484.109955 
	C666.159729,485.723297 665.802734,487.629517 665.855286,489.400787 
	C664.053467,488.923584 662.243835,488.473328 660.454163,487.954193 
	C659.848877,487.778564 659.294189,487.428680 658.250244,486.940460 
	C657.024902,489.009064 655.256958,490.841705 654.922729,492.906403 
	C654.632629,494.698975 655.461182,497.969177 656.672791,498.471954 
	C660.768188,500.171478 661.656250,502.167175 659.596802,506.103760 
	C658.510925,508.179169 658.063049,510.557037 661.912598,511.067566 
	C666.620422,511.691833 671.312256,512.669250 675.895020,513.919373 
	C678.882690,514.734314 680.713562,514.759033 682.120300,511.397614 
	C684.779297,505.043518 688.157959,498.991486 690.839294,492.645630 
	C697.311340,477.328094 701.524780,461.557922 702.187561,444.716858 
	C702.736816,430.760620 703.098633,416.772247 699.713379,403.326202 
	C696.517822,390.633331 691.793335,378.201721 686.526611,366.187714 
	C680.945496,353.456390 672.818970,342.150574 663.172668,331.988251 
	C660.377319,329.043304 658.349182,325.370056 655.969360,322.030701 
	C655.969360,322.030670 656.201904,321.763885 656.320740,321.629456 
	C662.995911,329.181671 670.215149,336.403625 675.987610,344.639648 
	C695.473083,372.441071 705.402893,403.501038 704.605957,437.516235 
	C703.900391,467.626587 695.403503,495.532074 678.178223,520.486450 
	C676.558838,522.832581 676.494263,524.530945 678.165955,526.694092 
	C714.333801,573.496155 714.582153,651.374207 676.513062,705.029907 
	C676.132996,705.118408 675.939636,704.956970 676.001343,704.604736 
	C681.661072,693.271790 687.904175,682.560852 692.646301,671.222168 
	C696.225464,662.664124 698.684570,653.435303 700.199890,644.266663 
	C702.187927,632.237976 703.658264,619.974915 703.656738,607.812866 
	C703.655518,597.837830 701.861145,587.708496 699.646973,577.922424 
	C695.771973,560.795959 689.139404,544.739502 678.426636,530.536133 
	C676.253235,527.654663 674.666931,526.554688 671.118103,528.242737 
	C668.599976,529.440552 664.531860,530.628113 663.428101,526.889038 
	C662.410522,523.441956 660.317871,522.804810 657.763000,522.490784 
	C654.316101,522.067139 650.807251,522.012817 647.326782,522.040283 
	C644.544922,522.062195 642.090881,522.171265 641.141968,518.632385 
	C640.868896,517.614075 639.058655,517.007996 637.953186,516.212952 
	C637.565552,517.423035 636.887817,518.625793 636.856934,519.844910 
	C636.808167,521.770691 637.193359,523.707520 637.367493,525.377869 
	C645.020386,528.096130 652.208740,530.649414 659.509216,533.242493 
	C659.554443,537.273865 656.468811,541.957520 661.181030,545.867554 
	C662.074219,546.608643 661.904358,548.630798 662.225037,550.061890 
	C660.586853,549.967712 658.842224,550.192993 657.339722,549.691956 
	C655.752075,549.162598 654.395325,547.941162 652.362244,546.659180 
	C652.239624,548.670288 652.171387,549.789551 652.060547,550.947144 
	C652.017944,550.985474 651.933411,551.062866 651.933411,551.062866 
z"/>
<path fill="#FB7666" opacity="1.000000" stroke="none" 
	d="
M447.534302,778.863525 
	C448.847443,778.508484 450.612579,778.033203 452.378510,778.030334 
	C480.842773,777.983887 509.308960,778.189941 537.770752,777.919373 
	C552.839783,777.776062 567.989258,776.742065 582.362427,771.924988 
	C594.203491,767.956543 605.591492,762.637390 617.186584,757.932312 
	C618.861816,757.252563 620.572144,756.659485 622.643494,756.038879 
	C614.781067,760.270325 606.818054,765.193237 598.244324,768.562073 
	C580.165161,775.665955 561.306763,779.203918 541.754700,779.071899 
	C510.499878,778.860962 479.242828,778.982361 447.534302,778.863525 
z"/>
<path fill="#FB7666" opacity="1.000000" stroke="none" 
	d="
M408.536652,742.026611 
	C407.499207,742.766296 405.982178,743.969910 404.519531,743.907104 
	C392.998749,743.412476 381.488342,742.675842 369.527710,742.021484 
	C369.762421,741.551697 370.444153,741.074158 371.271851,740.305237 
	C383.639252,740.643860 395.860748,741.273865 408.536652,742.026611 
z"/>
<path fill="#FB7666" opacity="1.000000" stroke="none" 
	d="
M364.474487,745.879456 
	C363.870239,748.703491 362.654144,751.566711 362.057678,754.553650 
	C360.549927,762.104553 364.195953,767.905334 368.969849,773.581726 
	C359.595551,770.201355 356.641602,751.895569 364.474487,745.879456 
z"/>
<path fill="#FB7666" opacity="1.000000" stroke="none" 
	d="
M385.527832,778.883484 
	C385.671906,778.533020 386.269806,778.059570 386.866547,778.061035 
	C403.998199,778.102600 421.129730,778.191772 438.583252,778.512085 
	C421.263885,778.827942 403.622498,778.904907 385.527832,778.883484 
z"/>
<path fill="#FB7666" opacity="1.000000" stroke="none" 
	d="
M623.399902,755.987183 
	C623.561584,755.256714 623.896851,754.226196 624.605530,753.740234 
	C629.848511,750.144653 635.165771,746.657471 640.832153,743.172668 
	C635.385193,747.452515 629.565796,751.695923 623.399902,755.987183 
z"/>
<path fill="#FB7666" opacity="1.000000" stroke="none" 
	d="
M369.252563,774.270874 
	C372.657043,775.291687 376.226776,776.605652 379.895935,778.233887 
	C376.469513,777.220093 372.943695,775.892029 369.252563,774.270874 
z"/>
<path fill="#FB7666" opacity="1.000000" stroke="none" 
	d="
M666.603821,718.182617 
	C666.760681,717.052307 667.229248,715.831726 668.121033,714.179504 
	C669.340942,713.148682 670.137695,712.549500 671.030945,712.047729 
	C671.127502,712.145142 671.313599,712.346680 671.313599,712.346680 
	C669.847595,714.261963 668.381592,716.177185 666.603821,718.182617 
z"/>
<path fill="#FB7666" opacity="1.000000" stroke="none" 
	d="
M662.457336,723.065796 
	C663.286865,721.550171 664.432617,719.927185 665.927368,718.244995 
	C665.108765,719.776733 663.941162,721.367615 662.457336,723.065796 
z"/>
<path fill="#FB7666" opacity="1.000000" stroke="none" 
	d="
M644.360535,740.973389 
	C645.388977,739.689453 646.733948,738.338684 648.426514,736.963135 
	C647.408386,738.260986 646.042725,739.583740 644.360535,740.973389 
z"/>
<path fill="#FB7666" opacity="1.000000" stroke="none" 
	d="
M673.377747,709.435974 
	C672.861145,710.300720 672.344604,711.165527 671.570801,712.188477 
	C671.313599,712.346680 671.127502,712.145142 671.079834,711.734497 
	C671.674011,710.538452 672.315796,709.752930 673.063782,709.083618 
	C673.169922,709.199707 673.377747,709.435974 673.377747,709.435974 
z"/>
<path fill="#FB7666" opacity="1.000000" stroke="none" 
	d="
M675.059326,707.049683 
	C674.670227,707.736389 674.281128,708.423096 673.634888,709.272888 
	C673.377747,709.435974 673.169922,709.199707 673.119141,708.775085 
	C673.671692,707.861267 674.275024,707.372070 674.923279,706.924927 
	C674.968201,706.967041 675.059326,707.049683 675.059326,707.049683 
z"/>
<path fill="#FB7666" opacity="1.000000" stroke="none" 
	d="
M368.721497,742.123108 
	C368.506500,742.675964 367.991943,743.277710 367.142822,743.863159 
	C367.346130,743.288513 367.884064,742.730225 368.721497,742.123108 
z"/>
<path fill="#FB7666" opacity="1.000000" stroke="none" 
	d="
M654.467590,731.255737 
	C654.552246,730.872009 654.929932,730.463013 655.606812,730.014526 
	C655.524231,730.393555 655.142395,730.812073 654.467590,731.255737 
z"/>
<path fill="#FB7666" opacity="1.000000" stroke="none" 
	d="
M653.244507,732.779724 
	C653.211792,732.364441 653.451782,731.840881 653.986206,731.243408 
	C654.026123,731.670166 653.771667,732.170837 653.244507,732.779724 
z"/>
<path fill="#FB7666" opacity="1.000000" stroke="none" 
	d="
M676.229919,705.198853 
	C676.068542,705.775818 675.810242,706.272278 675.305664,706.909180 
	C675.059326,707.049683 674.968201,706.967041 674.982788,706.645630 
	C675.311523,705.868530 675.625549,705.412720 675.939636,704.956970 
	C675.939636,704.956970 676.132996,705.118408 676.229919,705.198853 
z"/>
<path fill="#FB7666" opacity="1.000000" stroke="none" 
	d="
M642.457642,742.251587 
	C642.574036,741.872192 642.989502,741.471497 643.718933,741.057251 
	C643.607544,741.439270 643.182129,741.834778 642.457642,742.251587 
z"/>
<path fill="#FB7666" opacity="1.000000" stroke="none" 
	d="
M365.602386,744.870483 
	C365.698853,745.115845 365.519409,745.421021 365.076263,745.804871 
	C364.983856,745.565796 365.155151,745.248047 365.602386,744.870483 
z"/>
<path fill="#FB7666" opacity="1.000000" stroke="none" 
	d="
M364.695892,305.301331 
	C364.275269,305.285065 364.026306,305.084412 363.726471,304.594452 
	C363.615753,304.379303 363.825104,304.174896 364.138672,304.192688 
	C364.711792,304.410522 364.903290,304.662354 365.026703,304.965973 
	C365.026703,304.965973 364.807770,305.191132 364.695892,305.301331 
z"/>
<path fill="#FB7666" opacity="1.000000" stroke="none" 
	d="
M366.629578,743.889526 
	C366.716705,744.126526 366.529144,744.427368 366.077942,744.805908 
	C365.994507,744.573425 366.174713,744.263367 366.629578,743.889526 
z"/>
<path fill="#FB7666" opacity="1.000000" stroke="none" 
	d="
M641.411011,743.139282 
	C641.319092,742.885864 641.504150,742.584961 641.959473,742.226257 
	C642.049194,742.476196 641.868652,742.783997 641.411011,743.139282 
z"/>
<path fill="#FB7666" opacity="1.000000" stroke="none" 
	d="
M660.383179,725.294434 
	C660.283569,725.078552 660.448730,724.711426 660.896118,724.216675 
	C661.001526,724.440491 660.824707,724.791870 660.383179,725.294434 
z"/>
<path fill="#FB7666" opacity="1.000000" stroke="none" 
	d="
M661.381409,724.107788 
	C661.291016,723.878906 661.467163,723.573181 661.900085,723.175049 
	C661.987244,723.398804 661.817566,723.714905 661.381409,724.107788 
z"/>
<path fill="#F2F9FE" opacity="1.000000" stroke="none" 
	d="
M580.977051,588.092529 
	C597.367310,619.566101 579.355713,656.519043 545.010925,662.468994 
	C543.056458,662.807617 541.038147,662.903503 539.049683,662.902344 
	C505.736664,662.883118 472.423615,662.819641 439.110596,662.803650 
	C436.089020,662.802185 433.698730,662.965698 433.708069,658.520752 
	C433.771606,628.214783 433.580017,597.908264 433.484406,567.601929 
	C433.480835,566.467468 433.617523,565.332642 433.731506,563.519043 
	C435.679626,563.519043 437.443756,563.519653 439.207855,563.518921 
	C471.688202,563.505737 504.169098,563.599365 536.648743,563.438965 
	C555.997803,563.343445 570.495239,571.669434 580.977051,588.092529 
z"/>
<path fill="#F2F9FE" opacity="1.000000" stroke="none" 
	d="
M441.192261,484.751160 
	C434.107147,484.725433 433.768555,484.729004 433.697021,477.956451 
	C433.396423,449.490936 433.301727,421.023163 433.188568,392.556000 
	C433.181519,390.780121 433.660889,389.002380 433.974030,386.803680 
	C436.236664,386.803680 438.205994,386.802155 440.175323,386.803894 
	C472.310791,386.832581 504.447174,387.019470 536.581360,386.832611 
	C556.499023,386.716766 571.355225,395.502197 580.835999,412.441742 
	C590.106934,429.006561 588.990112,446.054718 579.273010,462.305603 
	C570.464172,477.037476 557.223633,484.700226 540.070618,484.786682 
	C507.270142,484.952057 474.467926,484.782166 441.192261,484.751160 
z"/>
<path fill="#FE725E" opacity="1.000000" stroke="none" 
	d="
M655.629028,321.982605 
	C658.349182,325.370056 660.377319,329.043304 663.172668,331.988251 
	C672.818970,342.150574 680.945496,353.456390 686.526611,366.187714 
	C691.793335,378.201721 696.517822,390.633331 699.713379,403.326202 
	C703.098633,416.772247 702.736816,430.760620 702.187561,444.716858 
	C701.524780,461.557922 697.311340,477.328094 690.839294,492.645630 
	C688.157959,498.991486 684.779297,505.043518 682.120300,511.397614 
	C680.713562,514.759033 678.882690,514.734314 675.895020,513.919373 
	C671.312256,512.669250 666.620422,511.691833 661.912598,511.067566 
	C658.063049,510.557037 658.510925,508.179169 659.596802,506.103760 
	C661.656250,502.167175 660.768188,500.171478 656.672791,498.471954 
	C655.461182,497.969177 654.632629,494.698975 654.922729,492.906403 
	C655.256958,490.841705 657.024902,489.009064 658.250244,486.940460 
	C659.294189,487.428680 659.848877,487.778564 660.454163,487.954193 
	C662.243835,488.473328 664.053467,488.923584 665.855286,489.400787 
	C665.802734,487.629517 666.159729,485.723297 665.627991,484.109955 
	C663.108215,476.464935 664.463013,469.234833 666.509338,461.655396 
	C669.171631,451.794067 671.581238,441.773102 670.150574,431.262177 
	C669.209473,424.348541 669.345886,417.292969 668.547729,410.352936 
	C668.207703,407.396759 666.501282,404.624664 665.787903,401.678802 
	C664.381897,395.873566 663.396423,389.963928 661.906006,384.182831 
	C661.273193,381.728149 662.057983,377.534668 657.036865,378.419342 
	C656.915222,378.440765 655.487244,375.155701 656.038696,374.222992 
	C659.671997,368.078461 656.908569,355.964081 650.543213,352.946167 
	C647.459473,351.484131 643.951538,350.689789 640.547913,350.182373 
	C635.374390,349.411163 632.536560,345.419891 628.825256,342.594635 
	C628.238770,342.148163 627.256470,342.221497 626.066772,342.088043 
	C625.368896,342.115173 625.135681,341.980255 624.929810,341.513000 
	C625.061035,333.826355 621.491150,330.400543 614.333557,329.746216 
	C611.783020,329.513062 609.443604,326.970978 607.019165,325.489777 
	C612.502014,317.089722 607.589966,307.153442 598.072327,306.000183 
	C592.908630,305.374512 591.344543,303.289459 592.356873,298.380951 
	C594.383911,288.552948 601.196716,285.538483 611.880127,291.153320 
	C621.161804,296.031494 629.869385,302.091003 638.476501,308.132965 
	C644.393982,312.286926 649.706055,317.303528 655.629028,321.982605 
M679.803040,500.404633 
	C679.798706,500.790253 679.794373,501.175873 679.790039,501.561523 
	C679.950073,501.563141 680.249146,501.575562 680.250000,501.564819 
	C680.279785,501.181122 680.281738,500.795227 679.803040,500.404633 
z"/>
<path fill="#FB7666" opacity="1.000000" stroke="none" 
	d="
M669.000000,644.000000 
	C668.074829,645.079407 666.144409,646.711792 666.385376,647.149780 
	C668.131714,650.324890 667.093506,652.369202 665.440125,655.469421 
	C663.165161,659.735291 662.854187,665.048584 661.620117,670.257874 
	C657.183289,668.678894 656.142273,672.936096 654.257812,676.375671 
	C653.484009,677.788025 651.876099,678.743408 650.277344,679.921021 
	C654.334534,669.674011 659.739319,659.713501 663.008911,649.095520 
	C673.441467,615.215027 670.178894,582.570984 651.973511,551.414734 
	C651.933411,551.062866 652.017944,550.985474 652.389648,551.037598 
	C655.880127,556.306152 659.307190,561.368408 662.015991,566.789673 
	C664.036438,570.833252 665.128479,575.340759 666.633911,579.641663 
	C667.043274,579.660278 667.452637,579.678955 667.862000,579.697632 
	C668.221863,577.946777 668.581726,576.195923 669.140564,573.477234 
	C672.150146,579.104492 673.824097,584.035217 672.637634,589.831604 
	C672.028687,592.806580 672.187927,595.938843 671.654785,599.058716 
	C671.041138,599.897278 670.338196,601.181641 670.569580,601.380920 
	C673.917847,604.264404 673.975769,606.914185 670.847351,610.152222 
	C670.125854,610.898987 670.637451,613.439758 671.317139,614.782593 
	C672.133972,616.396301 673.737244,617.611938 675.000000,619.333313 
	C675.000000,620.111084 675.000000,620.555542 674.727295,621.249146 
	C673.352539,626.620544 670.449768,631.457703 671.958862,637.351562 
	C671.591980,640.101746 666.558044,640.318848 669.000000,644.000000 
z"/>
<path fill="#FB7666" opacity="1.000000" stroke="none" 
	d="
M575.611328,737.582825 
	C572.062927,739.099731 568.251282,741.278442 564.227051,741.792419 
	C555.061340,742.962952 545.794922,743.846497 536.563171,743.908325 
	C501.643494,744.142090 466.721252,744.018188 431.800140,743.955017 
	C429.940979,743.951660 428.083008,743.278503 426.117249,742.537781 
	C445.954681,742.079163 465.899567,742.036743 485.843903,741.910645 
	C506.958435,741.777161 528.083984,741.912842 549.181213,741.217896 
	C557.902832,740.930725 566.563354,738.787781 575.611328,737.582825 
z"/>
<path fill="#FB7666" opacity="1.000000" stroke="none" 
	d="
M631.677246,703.108276 
	C630.946472,707.534119 630.971985,712.786011 628.569092,716.441772 
	C626.112793,720.178589 623.132141,724.536316 617.348755,725.170837 
	C613.991089,725.539246 610.338562,726.983032 607.681152,729.051086 
	C604.096619,731.840637 600.778198,730.060730 596.860046,729.886719 
	C606.757385,722.244263 617.126099,714.664062 627.440063,707.010132 
	C628.886719,705.936584 630.065125,704.501465 631.677246,703.108276 
z"/>
<path fill="#FB7666" opacity="1.000000" stroke="none" 
	d="
M649.632507,680.081421 
	C650.057678,685.577332 646.716736,689.002747 641.957031,691.544800 
	C644.171204,687.639038 646.751892,683.939819 649.632507,680.081421 
z"/>
<path fill="#FB7666" opacity="1.000000" stroke="none" 
	d="
M638.656250,695.085876 
	C637.182495,697.274597 635.402405,699.594727 633.265930,701.930481 
	C634.723083,699.703186 636.536499,697.460205 638.656250,695.085876 
z"/>
<path fill="#FB7666" opacity="1.000000" stroke="none" 
	d="
M418.577118,742.026123 
	C417.391632,745.260681 415.320984,744.360046 413.092865,742.486450 
	C414.726807,742.056702 416.445068,741.977722 418.577118,742.026123 
z"/>
<path fill="#FB7666" opacity="1.000000" stroke="none" 
	d="
M595.644226,729.905762 
	C594.121277,730.898621 592.236389,731.914246 589.927856,732.899231 
	C591.430298,731.888550 593.356262,730.908508 595.644226,729.905762 
z"/>
<path fill="#FB7666" opacity="1.000000" stroke="none" 
	d="
M586.450806,733.709106 
	C585.617371,734.442261 584.424255,735.176880 582.790955,735.861206 
	C583.597534,735.110779 584.844360,734.410645 586.450806,733.709106 
z"/>
<path fill="#FB7666" opacity="1.000000" stroke="none" 
	d="
M579.715332,736.286621 
	C579.451355,736.731262 578.908630,737.120300 578.206421,737.308472 
	C578.510193,736.815430 578.973389,736.523254 579.715332,736.286621 
z"/>
<path fill="#FB7666" opacity="1.000000" stroke="none" 
	d="
M641.057617,691.678467 
	C641.083557,692.341309 640.833801,693.101501 640.215088,693.884033 
	C640.158081,693.196228 640.470032,692.485962 641.057617,691.678467 
z"/>
<path fill="#FB7666" opacity="1.000000" stroke="none" 
	d="
M588.697388,732.927734 
	C588.494995,733.266602 587.972412,733.580017 587.125488,733.852478 
	C587.326477,733.508423 587.851807,733.205322 588.697388,732.927734 
z"/>
<path fill="#FB7666" opacity="1.000000" stroke="none" 
	d="
M639.680542,693.949341 
	C639.764709,694.158508 639.591675,694.452637 639.184204,694.860840 
	C639.107605,694.661316 639.265442,694.347778 639.680542,693.949341 
z"/>
<path fill="#FB7666" opacity="1.000000" stroke="none" 
	d="
M632.716064,701.999512 
	C632.786804,702.191589 632.610046,702.474915 632.207153,702.874756 
	C632.143494,702.691040 632.306030,702.390930 632.716064,701.999512 
z"/>
<path fill="#FE725E" opacity="1.000000" stroke="none" 
	d="
M672.000000,599.000000 
	C672.187927,595.938843 672.028687,592.806580 672.637634,589.831604 
	C673.824097,584.035217 672.150146,579.104492 669.140564,573.477234 
	C668.581726,576.195923 668.221863,577.946777 667.862000,579.697632 
	C667.452637,579.678955 667.043274,579.660278 666.633911,579.641663 
	C665.128479,575.340759 664.036438,570.833252 662.015991,566.789673 
	C659.307190,561.368408 655.880127,556.306152 652.432251,550.999268 
	C652.171387,549.789551 652.239624,548.670288 652.362244,546.659180 
	C654.395325,547.941162 655.752075,549.162598 657.339722,549.691956 
	C658.842224,550.192993 660.586853,549.967712 662.225037,550.061890 
	C661.904358,548.630798 662.074219,546.608643 661.181030,545.867554 
	C656.468811,541.957520 659.554443,537.273865 659.509216,533.242493 
	C652.208740,530.649414 645.020386,528.096130 637.367493,525.377869 
	C637.193359,523.707520 636.808167,521.770691 636.856934,519.844910 
	C636.887817,518.625793 637.565552,517.423035 637.953186,516.212952 
	C639.058655,517.007996 640.868896,517.614075 641.141968,518.632385 
	C642.090881,522.171265 644.544922,522.062195 647.326782,522.040283 
	C650.807251,522.012817 654.316101,522.067139 657.763000,522.490784 
	C660.317871,522.804810 662.410522,523.441956 663.428101,526.889038 
	C664.531860,530.628113 668.599976,529.440552 671.118103,528.242737 
	C674.666931,526.554688 676.253235,527.654663 678.426636,530.536133 
	C689.139404,544.739502 695.771973,560.795959 699.646973,577.922424 
	C701.861145,587.708496 703.655518,597.837830 703.656738,607.812866 
	C703.658264,619.974915 702.187927,632.237976 700.199890,644.266663 
	C698.684570,653.435303 696.225464,662.664124 692.646301,671.222168 
	C687.904175,682.560852 681.661072,693.271790 676.001343,704.604736 
	C675.625549,705.412720 675.311523,705.868530 674.937866,706.603577 
	C674.275024,707.372070 673.671692,707.861267 673.012939,708.658936 
	C672.315796,709.752930 671.674011,710.538452 670.983276,711.637085 
	C670.137695,712.549500 669.340942,713.148682 668.272095,713.874756 
	C664.512451,710.290100 663.916687,706.767761 666.949890,702.049133 
	C668.514465,699.615173 667.976440,695.665466 667.938354,692.405884 
	C667.887451,688.049683 669.240601,685.098938 673.782227,683.867920 
	C677.429749,682.879211 679.198547,680.111450 678.967712,676.351624 
	C678.693481,671.886475 681.269897,665.975769 673.213745,665.147522 
	C672.330261,665.056641 671.397766,661.212891 671.285034,659.067871 
	C671.176636,657.005737 672.011475,654.863098 672.595398,652.802185 
	C673.611877,649.214355 672.835815,646.295349 669.355469,644.059631 
	C666.558044,640.318848 671.591980,640.101746 672.322021,637.286865 
	C676.396057,631.997681 676.928772,626.675171 675.000000,621.000000 
	C675.000000,620.555542 675.000000,620.111084 675.292114,619.036438 
	C675.722778,615.939270 675.895691,613.473694 675.992554,611.005066 
	C676.169006,606.510010 676.451111,601.963013 672.000000,599.000000 
z"/>
<path fill="#FC7364" opacity="1.000000" stroke="none" 
	d="
M365.392639,305.022705 
	C364.903290,304.662354 364.711792,304.410522 364.244446,304.091644 
	C363.357819,300.132996 362.161621,296.302277 362.093384,292.451630 
	C361.853119,278.889191 374.696228,270.042175 387.575073,274.611053 
	C388.338379,274.881836 389.197784,274.954742 390.017242,274.983368 
	C400.137451,275.337006 410.256500,275.763428 420.379974,275.968445 
	C428.288879,276.128632 436.203644,275.987091 444.115448,276.032898 
	C445.087189,276.038544 446.356201,276.042725 446.981384,276.607666 
	C453.232727,282.256500 460.669250,280.236938 467.828552,279.979156 
	C468.803101,279.944061 470.154816,280.008057 470.678162,279.432098 
	C475.588928,274.027802 480.265472,275.517120 484.518524,279.653809 
	C496.602264,272.836700 509.146332,270.833344 522.440308,272.611603 
	C525.225708,272.984192 528.075623,272.860626 530.893799,273.004425 
	C537.702942,273.351837 544.524109,273.584564 551.304871,274.234344 
	C552.299255,274.329681 553.455078,276.333923 553.897034,277.666840 
	C554.419250,279.241547 554.246887,281.046600 554.375610,282.751801 
	C554.839417,282.890289 555.303162,283.028778 555.766968,283.167267 
	C556.613403,281.937256 557.193787,280.166046 558.362366,279.591583 
	C560.687073,278.448822 564.832214,276.595764 565.600708,277.436157 
	C569.759949,281.984283 573.981995,278.379272 577.947266,278.427551 
	C582.027466,282.369324 583.913452,286.275513 577.787720,289.982056 
	C577.537781,290.133331 577.325562,290.515228 577.283386,290.815979 
	C576.859192,293.840302 577.436340,297.456787 572.398499,297.078094 
	C569.497131,296.859985 566.477844,297.707703 563.640808,297.258911 
	C559.706970,296.636536 555.916931,295.149292 552.014771,294.252167 
	C551.017761,294.022919 549.632446,294.319885 548.764160,294.890472 
	C544.490784,297.698578 540.172363,298.268921 535.031372,297.257690 
	C531.294800,296.522675 527.140808,297.605316 523.235596,298.254547 
	C522.308289,298.408691 521.804321,300.343170 520.801636,300.980560 
	C519.087097,302.070435 517.191223,303.060547 515.240479,303.472931 
	C514.701782,303.586823 513.522644,301.594360 512.945435,300.417297 
	C511.593658,297.660767 507.838135,297.143860 505.485535,299.210602 
	C504.074738,300.449982 502.196289,301.167480 500.499023,302.064636 
	C499.921112,302.370148 499.041321,302.320129 498.661377,302.751404 
	C494.642670,307.312988 489.287903,305.823242 484.315735,305.990784 
	C473.696442,306.348694 463.077057,306.760040 452.454224,306.923737 
	C449.003662,306.976898 445.538635,306.012299 442.086487,306.052277 
	C422.634644,306.277649 403.184479,306.657654 383.734467,307.022247 
	C382.423279,307.046814 381.113892,307.354065 379.810455,307.570801 
	C374.829773,308.399139 369.927673,308.815857 365.392639,305.022705 
z"/>
<path fill="#FB7666" opacity="1.000000" stroke="none" 
	d="
M680.045288,500.407166 
	C680.281738,500.795227 680.279785,501.181122 680.250000,501.564819 
	C680.249146,501.575562 679.950073,501.563141 679.790039,501.561523 
	C679.794373,501.175873 679.798706,500.790253 680.045288,500.407166 
z"/>
<path fill="#FC7364" opacity="1.000000" stroke="none" 
	d="
M671.654785,599.058716 
	C676.451111,601.963013 676.169006,606.510010 675.992554,611.005066 
	C675.895691,613.473694 675.722778,615.939270 675.292114,618.703125 
	C673.737244,617.611938 672.133972,616.396301 671.317139,614.782593 
	C670.637451,613.439758 670.125854,610.898987 670.847351,610.152222 
	C673.975769,606.914185 673.917847,604.264404 670.569580,601.380920 
	C670.338196,601.181641 671.041138,599.897278 671.654785,599.058716 
z"/>
<path fill="#FC7364" opacity="1.000000" stroke="none" 
	d="
M674.727295,621.249146 
	C676.928772,626.675171 676.396057,631.997681 672.363159,636.935364 
	C670.449768,631.457703 673.352539,626.620544 674.727295,621.249146 
z"/>
</svg>